# xmcd
#
# Track frame offsets:
#	182
#	14497
#	25970
#	37560
#	51577
#	67230
#	85005
#	100207
#	113112
#	126585
#	135702
#	148027
#	165780
#	177065
#	191932
#	209955
#	223105
#	239217
#	250292
#	262725
#	274140
#	287057
#	302735
#
# Disc length: 4225
#
# Revision: 4
# Processed by: cddbd v1.5.1PL0 Copyright (c) Steve Scherf et al.
# Submitted via: CDex 1.50beta10
# Normalized: r3:DSETVAR1
#
DISCID=67107f17
DTITLE=Various Artist - Country Collection
DYEAR=1993
DGENRE=Country
TTITLE0=Glenn Campbell - Rhinestone Cowboy
TTITLE1=Freddy Fender - Before The Next Teardrop Falls
TTITLE2=Crystal Gayle - Don T It Make My Brown Eyes Blue
TTITLE3=Elvis Costello - Good Year For The Roses
TTITLE4=The Judds - Why Not Me
TTITLE5=Tony Aabo - Hendersson Road
TTITLE6=Alex Harvey - To Make My Life Beautiful
TTITLE7=Dr Hook - Sharing The Night Together
TTITLE8=Bj Thomas - I Just Can T Help Believing
TTITLE9=Frankie Laine - Rawhide
TTITLE10=Johnny Cash - I Walk The Line
TTITLE11=Bobby Golsbore - Honey
TTITLE12=Jim Croce - I Ll Have To Say I Love You In A Song
TTITLE13=Olivia Newton John - Take Me Home Country Roads
TTITLE14=Ricky Nelson - Garden Party
TTITLE15=Ray Charles - Crying Time
TTITLE16=Billie Jo Spears - Blanket On The Ground
TTITLE17=Roger Miller - King Of The Road
TTITLE18=Dolly Parton - Making Believe
TTITLE19=Patsy Cline - Walking After Midnight
TTITLE20=Kenny Rogers - Ruby Don T Take Your Love To Town
TTITLE21=Dirt Band - An American Dream
TTITLE22=Bellamy Brothers - If I Said You Had A Beautiful Body
EXTD=YEAR: 1993
EXTT0=
EXTT1=
EXTT2=
EXTT3=
EXTT4=
EXTT5=
EXTT6=
EXTT7=
EXTT8=
EXTT9=
EXTT10=
EXTT11=
EXTT12=
EXTT13=
EXTT14=
EXTT15=
EXTT16=
EXTT17=
EXTT18=
EXTT19=
EXTT20=
EXTT21=
EXTT22=
PLAYORDER=
